<svg id="Logo" xmlns="http://www.w3.org/2000/svg" viewBox="0 0 609.68 131.73"><defs><style>.cls-1{fill:#203a70;}.cls-2{fill:#fbb615;}.cls-3{fill:#fff;}.cls-4{fill:none;stroke:#919395;stroke-miterlimit:10;}</style></defs><path class="cls-1" d="M253,117.94a15.16,15.16,0,0,1-5.65,12.37q-5.65,4.62-16,4.62a38,38,0,0,1-16.66-3.52V119.9c2.81,1.2,5.7,2.3,8.7,3.31a27.89,27.89,0,0,0,9,1.51q4.62,0,6.55-1.76a5.75,5.75,0,0,0,1.94-4.45,5.16,5.16,0,0,0-1.52-3.75,16.47,16.47,0,0,0-4.08-2.91q-2.57-1.34-5.86-2.9-2.07-1-4.45-2.32a25,25,0,0,1-4.58-3.35,16.21,16.21,0,0,1-3.59-4.86,15.51,15.51,0,0,1-1.4-6.86q0-7.84,5.36-12.21T235.3,75A34.83,34.83,0,0,1,244,76a62,62,0,0,1,8.74,3l-4,9.64a69.68,69.68,0,0,0-7.26-2.53,24.31,24.31,0,0,0-6.59-.9,8.12,8.12,0,0,0-5.45,1.63,5.36,5.36,0,0,0-1.89,4.25,5.55,5.55,0,0,0,2.8,4.9,77.45,77.45,0,0,0,8.33,4.41,49.19,49.19,0,0,1,7.71,4.41,16.67,16.67,0,0,1,4.9,5.39,15.52,15.52,0,0,1,1.74,7.68" transform="translate(-27.69 -21.98)"/><path class="cls-1" d="M277,125.21a20.39,20.39,0,0,0,4-.37,26.27,26.27,0,0,0,3.79-1v9.07a22.2,22.2,0,0,1-4.9,1.47,33.63,33.63,0,0,1-6.4.57,18.84,18.84,0,0,1-7.21-1.31,10.21,10.21,0,0,1-5-4.49c-1.23-2.12-1.85-5.12-1.85-9V98.66h-5.86V93.52l6.76-4.09L263.83,80h7.83v9.48h12.62v9.14H271.66v21.49a4.71,4.71,0,0,0,1.49,3.79,5.73,5.73,0,0,0,3.87,1.27" transform="translate(-27.69 -21.98)"/><path class="cls-1" d="M314.29,88.7c.61,0,1.32,0,2.15.08a14.62,14.62,0,0,1,2,.25l-.91,11.43a15.75,15.75,0,0,0-1.73-.29,17.41,17.41,0,0,0-1.9-.12,16.61,16.61,0,0,0-6,1.11,10,10,0,0,0-4.66,3.55,11.24,11.24,0,0,0-1.77,6.7v22.7H289.14V89.52h9.32L300.27,97h.58a18.53,18.53,0,0,1,5.44-5.88,13.54,13.54,0,0,1,8-2.45" transform="translate(-27.69 -21.98)"/><path class="cls-1" d="M361.13,111.73q0,11.11-5.9,17.15t-16,6.05a22.81,22.81,0,0,1-11.18-2.7,19.08,19.08,0,0,1-7.71-7.88,26.21,26.21,0,0,1-2.8-12.62q0-11.1,5.85-17.07t16.08-6a22.77,22.77,0,0,1,11.22,2.7,19.19,19.19,0,0,1,7.67,7.84,25.76,25.76,0,0,1,2.8,12.49m-31.09,0q0,6.61,2.19,10t7.13,3.39q4.86,0,7.05-3.39t2.19-10q0-6.62-2.19-9.92c-1.46-2.21-3.83-3.31-7.13-3.31s-5.6,1.1-7,3.31-2.19,5.51-2.19,9.92" transform="translate(-27.69 -21.98)"/><path class="cls-1" d="M392.13,88.7q7.26,0,11.63,3.88T408.13,105v29.07H395.84V108.06c0-3.22-.57-5.62-1.73-7.23s-3-2.41-5.52-2.41q-5.61,0-7.67,3.8t-2.06,10.9v21H366.57V89.52H376l1.65,5.71h.66a12.39,12.39,0,0,1,5.9-5,20.67,20.67,0,0,1,7.95-1.55" transform="translate(-27.69 -21.98)"/><path class="cls-1" d="M430.64,88.7a15.14,15.14,0,0,1,13,6.54H444l1-5.72h10.39V134.2q0,9.54-5.69,14.53t-16.82,5a64.1,64.1,0,0,1-8.86-.58,36.66,36.66,0,0,1-8-2v-9.72a45.17,45.17,0,0,0,17.56,3.43q9.48,0,9.49-10.12v-.9c0-.87,0-1.81.08-2.82s.13-1.89.24-2.66h-.32a13.85,13.85,0,0,1-5.53,5.07,16.53,16.53,0,0,1-7.26,1.55,14.67,14.67,0,0,1-12.49-6.08q-4.5-6.09-4.49-16.95T418,94.83a15,15,0,0,1,12.69-6.13m3.88,9.88q-8.65,0-8.66,13.48,0,13.32,8.83,13.31,4.69,0,7-2.65t2.27-9.27V112q0-7.19-2.23-10.29t-7.17-3.11" transform="translate(-27.69 -21.98)"/><path class="cls-1" d="M482.1,88.7q9.31,0,14.76,5.27t5.44,15v5.88h-29a11.46,11.46,0,0,0,3.1,8.08q2.92,2.94,8.12,2.94a33.36,33.36,0,0,0,7.87-.86,37.17,37.17,0,0,0,7.38-2.65v9.4a30.9,30.9,0,0,1-7,2.4,42.68,42.68,0,0,1-8.82.78,27.3,27.3,0,0,1-12-2.49,18.67,18.67,0,0,1-8.17-7.52q-3-5-3-12.78a28.4,28.4,0,0,1,2.68-13A18.15,18.15,0,0,1,471,91.31,22.89,22.89,0,0,1,482.1,88.7m.08,8.66a8.07,8.07,0,0,0-5.94,2.29c-1.54,1.52-2.44,3.89-2.72,7.1h17.24a11,11,0,0,0-2.19-6.69q-2.1-2.7-6.39-2.7" transform="translate(-27.69 -21.98)"/><path class="cls-1" d="M532.73,88.7c.6,0,1.32,0,2.14.08a14.4,14.4,0,0,1,2,.25l-.91,11.43a15.34,15.34,0,0,0-1.73-.29,17.24,17.24,0,0,0-1.89-.12,16.61,16.61,0,0,0-6,1.11,10,10,0,0,0-4.66,3.55,11.24,11.24,0,0,0-1.78,6.7v22.7H507.58V89.52h9.32L518.71,97h.58a18.42,18.42,0,0,1,5.44-5.88,13.51,13.51,0,0,1,8-2.45" transform="translate(-27.69 -21.98)"/><path class="cls-2" d="M541.88,75.8h20.53q12.71,0,18.18,3.75a12.28,12.28,0,0,1,5.49,10.78,13.85,13.85,0,0,1-1.4,6.5,12.21,12.21,0,0,1-3.51,4.2,12.39,12.39,0,0,1-4.33,2.13v.41a20.53,20.53,0,0,1,4.78,2,10.82,10.82,0,0,1,4,4.08,14.49,14.49,0,0,1,1.61,7.39,14.83,14.83,0,0,1-6,12.5q-6,4.58-16.41,4.57H541.88ZM557.8,98.17h4.78q4,0,5.56-1.63a5.35,5.35,0,0,0,1.61-3.92q0-4.89-7.5-4.9H557.8Zm0,11.52v12.25h5.6q4.13,0,5.77-1.75a6.26,6.26,0,0,0,1.65-4.46,6.13,6.13,0,0,0-1.65-4.2c-1.1-1.22-3.13-1.84-6.1-1.84Z" transform="translate(-27.69 -21.98)"/><path class="cls-2" d="M619,87.88a10.2,10.2,0,0,0-8.82,4.58q-3.23,4.58-3.22,12.74t3.18,12.54q3.17,4.29,9.77,4.28a26.93,26.93,0,0,0,7.54-1.06,69.28,69.28,0,0,0,7.38-2.61v13.31a36,36,0,0,1-8,2.49,46.46,46.46,0,0,1-8.65.78q-9.66,0-15.71-3.76a22.37,22.37,0,0,1-9-10.49,39.33,39.33,0,0,1-2.88-15.56,35.22,35.22,0,0,1,3.29-15.6,25,25,0,0,1,9.69-10.66Q610,75,619.14,75a44.27,44.27,0,0,1,9,1,41.87,41.87,0,0,1,9.24,3.1L632.5,91.48A45.82,45.82,0,0,0,626,88.91a23.31,23.31,0,0,0-7-1" transform="translate(-27.69 -21.98)"/><path class="cls-1" d="M47.34,109.12c0,.95.06,2.29.61,2.87a3,3,0,0,0,2.31.73c2.6,0,4.58-1,4.58-3.68,0-2.08-1.17-4.49-5.81-4.49-1.57,0-1.69.16-1.69.68Zm0-6.1c0,.74,0,.79,1.52.74,3-.11,4.58-.89,4.58-3.37s-2.13-3.54-4.35-3.54a4.13,4.13,0,0,0-1.34.15c-.29.08-.41.21-.41.69ZM45,99.53c0-2-.14-2.46-1.45-2.57l-.92-.06c-.14-.12-.1-.65,0-.66,1.58-.14,3.56-.21,6.28-.21a12.1,12.1,0,0,1,4.9.74A3.44,3.44,0,0,1,56,100.05c0,1.9-1.23,2.87-3,3.6,0,.27.24.35.56.4a4.51,4.51,0,0,1,3.91,4.39c0,3-2.51,5.1-7.77,5.1-.84,0-2.27-.08-3.5-.08s-2.27.05-3.35.08a.47.47,0,0,1-.06-.66l.52-.08c1.55-.24,1.61-.52,1.61-3.29Z" transform="translate(-27.69 -21.98)"/><path class="cls-1" d="M77.77,102.11c0-2.38,0-2.76-1.51-2.87l-.63,0c-.15-.09-.1-.49.05-.56,1.25.05,2.09.07,3.14.07s1.85,0,3.09-.07c.15.07.2.47,0,.56l-.62,0c-1.47.11-1.52.49-1.52,2.87v8c0,2.38.05,2.69,1.52,2.85L82,113c.15.08.1.49,0,.56-1.24,0-2.09-.07-3.09-.07s-1.89,0-3.14.07a.4.4,0,0,1-.05-.56l.63-.07c1.46-.16,1.51-.47,1.51-2.85Z" transform="translate(-27.69 -21.98)"/><path class="cls-1" d="M91.6,110.15c0,2.36.05,2.7,1.4,2.81l.75.07c.14.09.09.49,0,.56-1.33,0-2.12-.07-3-.07s-1.76,0-3.25.07a.38.38,0,0,1,0-.56l.84-.07c1.33-.11,1.45-.45,1.45-2.81v-10c0-.7,0-.72-.7-.72H87.7a4.91,4.91,0,0,0-2.87.56,4.11,4.11,0,0,0-1,1.55.47.47,0,0,1-.61-.16A21.92,21.92,0,0,0,84.06,98a.56.56,0,0,1,.44,0c.14.71.91.69,2,.69H96c1.26,0,1.47,0,1.82-.63.11,0,.37,0,.42.07a13,13,0,0,0-.35,3.41c-.09.18-.49.18-.61,0-.07-.57-.23-1.39-.58-1.64a4.84,4.84,0,0,0-2.71-.56H92.28c-.7,0-.68,0-.68.76Z" transform="translate(-27.69 -21.98)"/><path class="cls-1" d="M101.61,102.11c0-2.38,0-2.76-1.52-2.87l-.62,0c-.15-.09-.1-.49,0-.56,1.24.05,2.09.07,3.14.07s1.84,0,3.09-.07c.15.07.2.47,0,.56l-.63,0c-1.47.11-1.52.49-1.52,2.87v8c0,2.38,0,2.69,1.52,2.85l.63.07c.15.08.1.49,0,.56-1.25,0-2.1-.07-3.09-.07s-1.9,0-3.14.07a.4.4,0,0,1,0-.56l.62-.07c1.47-.16,1.52-.47,1.52-2.85Z" transform="translate(-27.69 -21.98)"/><path class="cls-1" d="M112.78,113.82a9.51,9.51,0,0,1-4.13-.83,8.93,8.93,0,0,1-.72-3.15c.13-.15.53-.2.64-.07a4.58,4.58,0,0,0,4.56,3.35c2.22,0,3.31-1.23,3.31-2.58,0-1-.24-2.09-2.18-3.14l-2.51-1.4c-1.33-.74-2.86-2-2.86-3.86,0-2.13,2-3.86,5.4-3.86a11.69,11.69,0,0,1,2.46.29,4.17,4.17,0,0,0,.93.13,8.43,8.43,0,0,1,.48,2.74.58.58,0,0,1-.66.07A3.33,3.33,0,0,0,113.89,99c-2.59,0-3.15,1.46-3.15,2.5,0,1.3,1.27,2.24,2.25,2.76l2.12,1.12c1.67.88,3.31,2.18,3.31,4.31,0,2.47-2.2,4.16-5.64,4.16" transform="translate(-27.69 -21.98)"/><path class="cls-1" d="M126.12,106.27c-1.16,0-1.21,0-1.21.72v3.16c0,2.36.12,2.67,1.47,2.81l.7.07c.15.09.1.49,0,.56-1.3,0-2.12-.07-3.06-.07s-1.86,0-2.81.07a.42.42,0,0,1,0-.56l.41-.07c1.36-.23,1.41-.45,1.41-2.81v-8.08c0-2.36-.17-2.74-1.43-2.83l-.63,0c-.14-.08-.09-.49,0-.56,1.19,0,2,.07,3,.07s1.76,0,2.8-.07c.14.07.19.48,0,.56l-.46,0c-1.4.14-1.45.47-1.45,2.83v2.58c0,.7,0,.72,1.21.72H133c1.16,0,1.21,0,1.21-.72v-2.58c0-2.36-.05-2.69-1.48-2.83l-.46,0c-.14-.08-.09-.49,0-.56,1.11.05,1.93.07,2.92.07s1.77,0,2.85-.07c.15.07.2.48,0,.56l-.5,0c-1.41.14-1.45.47-1.45,2.83v8.08c0,2.36,0,2.65,1.45,2.81l.58.07c.14.09.09.49-.05.56-1.16,0-2-.07-2.93-.07s-1.86,0-2.92.07a.42.42,0,0,1,0-.56l.46-.07c1.48-.23,1.48-.45,1.48-2.81V107c0-.68-.05-.72-1.21-.72Z" transform="translate(-27.69 -21.98)"/><path class="cls-1" d="M31.12,118.52a11.79,11.79,0,0,1,7.34-2.3,21.24,21.24,0,0,1,4.82.65A2.28,2.28,0,0,0,44,117c0,.62.16,2.33.38,4a.57.57,0,0,1-.73.06c-.41-1.85-1.64-4-5.58-4-4.16,0-7.7,2.63-7.7,8.24s3.62,8.84,8.08,8.84a5.81,5.81,0,0,0,5.69-3.88.57.57,0,0,1,.71.11,10.24,10.24,0,0,1-1.31,3.71,7,7,0,0,0-.95.27,15.93,15.93,0,0,1-4.3.63,11.91,11.91,0,0,1-6.77-1.82,8.73,8.73,0,0,1-3.87-7.45,9,9,0,0,1,3.43-7.19" transform="translate(-27.69 -21.98)"/><path class="cls-1" d="M60.22,127.76c0-3.7-1.73-7.7-6.23-7.7-2.45,0-5.63,1.59-5.63,6.51,0,3.33,1.69,7.64,6.34,7.64,2.83,0,5.52-2,5.52-6.45M46,127.29c0-4.49,3.54-7.92,8.39-7.92,5.45,0,8.18,3.74,8.18,7.69a7.86,7.86,0,0,1-8.18,7.84c-5.23,0-8.39-3.57-8.39-7.61" transform="translate(-27.69 -21.98)"/><path class="cls-1" d="M89.17,125.36c0-1.39,0-4-.45-4.65a1.51,1.51,0,0,0-1.19-.47l-.6,0a.38.38,0,0,1,0-.53c.9,0,1.79.06,2.72.06s1.64,0,2.49-.06a.35.35,0,0,1,0,.53l-.57,0a1.42,1.42,0,0,0-1.19.54,19.12,19.12,0,0,0-.33,4.58v2.54c0,1.95-.34,4-1.67,5.36a6.44,6.44,0,0,1-4.54,1.64,7,7,0,0,1-4.45-1.23c-1.27-1-1.86-2.63-1.86-5.3v-5.3c0-2.34,0-2.72-1.43-2.83l-.6,0c-.14-.08-.09-.47.05-.53,1.19,0,2,.06,2.95.06s1.76,0,2.93-.06c.14.06.19.45,0,.53l-.57,0c-1.38.11-1.43.49-1.43,2.83v4.85c0,3.61,1.19,6,4.83,6,3.45,0,4.76-2.57,4.76-6Z" transform="translate(-27.69 -21.98)"/><path class="cls-1" d="M119,130.83a3.84,3.84,0,0,0,.56,2.47,2.75,2.75,0,0,0,2.07.64c2.34,0,4.13-.91,4.13-3.17,0-1.8-1-3.88-5.23-3.88-1.42,0-1.53.13-1.53.59Zm0-5.26c0,.63,0,.68,1.37.63,2.68-.08,4.13-.76,4.13-2.9s-1.92-3.06-3.92-3.06a3.72,3.72,0,0,0-1.21.14c-.26.07-.37.18-.37.59Zm-2.15-3c0-1.67-.11-2.1-1.29-2.2l-.85-.08c-.09-.09-.14-.54,0-.55,1.42-.11,3.21-.18,5.66-.18a11.49,11.49,0,0,1,4.42.63,3,3,0,0,1,2,2.84c0,1.63-1.11,2.47-2.69,3.11,0,.22.21.29.5.34a4,4,0,0,1,3.53,3.78c0,2.63-2.27,4.4-7,4.4-.76,0-2.05-.07-3.16-.07s-2,.05-3,.07a.39.39,0,0,1-.06-.56l.48-.07c1.39-.21,1.45-.45,1.45-2.84Z" transform="translate(-27.69 -21.98)"/><path class="cls-1" d="M64.88,105.65c-.45,0-1.36.17-1.36-.44v-4.3c0-1.68.06-1.93,2.08-1.93,2.37,0,3.83,1.21,3.83,3.42a2.83,2.83,0,0,1-1.22,2.45,5.48,5.48,0,0,1-3.33.8M74,113l-.63-.06-.34,0c-.91-.16-1.28-1-1.71-1.73l-2.15-3.75c-.38-.63-.77-1.47-1.63-1.59,2.21-.27,4.21-1.54,4.21-3.73,0-2.53-2.5-3.66-5-3.66-1.52,0-2.9,0-4.44,0-.85,0-1.87,0-2.72,0-.47,0-.48.1-.48.36s.17.28.67.31c1.79.1,1.73.44,1.73,2V111c0,1.41.12,1.83-1.36,2l-.36,0-.62.06a.4.4,0,0,0,0,.56l.92,0c.82,0,1.64-.09,2.46-.09s1.61.06,2.42.09l.92,0a.4.4,0,0,0,.05-.56L65.3,113l-.35,0c-1.49-.11-1.4-.53-1.4-2v-3.71c0-.21,0-.79.13-1s.37-.12.59-.12c2,0,2,.19,3,1.88l2.61,4.69c.21.36.37.82.9.82H73l.92,0a.4.4,0,0,0,0-.56" transform="translate(-27.69 -21.98)"/><path class="cls-1" d="M65.37,123.15c0-2.36-.05-2.72-1.6-2.83l-.62,0c-.15-.09-.1-.49.05-.56,1.38.05,2.22.07,3.21.07s1.8,0,3-.07c.14.07.19.47,0,.56l-.59,0c-1.46.11-1.5.47-1.5,2.83V131c0,1.41.07,2,.52,2.42.27.25.74.52,2.68.52,2.1,0,2.63-.09,3-.29a4.89,4.89,0,0,0,1.63-2.23c.15-.11.62,0,.62.14a17,17,0,0,1-1,3.14c-1.26,0-3.61-.06-6.15-.06H66.41c-1,0-1.83,0-3.21.06-.15-.06-.2-.42-.05-.56l.74-.06c1.43-.14,1.48-.45,1.48-2.81Z" transform="translate(-27.69 -21.98)"/><path class="cls-1" d="M131.54,123.19c0-2.38,0-2.76-1.48-2.87l-.61,0c-.14-.09-.1-.49.05-.56,1.21.05,2,.07,3.05.07s1.8,0,3-.07c.15.07.2.47.05.56l-.6,0c-1.44.11-1.48.49-1.48,2.87v8c0,2.38,0,2.7,1.48,2.86l.6.06c.15.09.1.5-.05.56-1.21,0-2-.06-3-.06s-1.84,0-3.05.06c-.15-.06-.19-.42-.05-.56l.61-.06c1.43-.16,1.48-.48,1.48-2.86Z" transform="translate(-27.69 -21.98)"/><path class="cls-1" d="M112.16,134l-.36,0a.93.93,0,0,1-.66-.26c-.32-.34-.29-1.29-.29-1.67v-9.84c0-.43-.11-1.36.21-1.69a1.09,1.09,0,0,1,.77-.22l.34,0,.62,0c.15-.09.1-.49-.05-.56l-.92,0h-2.65c-.29,0-.55,0-.71.31l-5.4,11.24L98.3,120.4c-.16-.38-.19-.69-.69-.69H94.86l-.94,0c-.15.07-.2.47,0,.56l.62,0,.36,0c1,.07,1.1.3,1,1.39L95,132.26c-.06,1.06-.12,1.62-1.23,1.72l-.37.05-.62.06c-.15.14-.1.5.05.56l.91,0c.56,0,1.14-.08,1.71-.08s1.24,0,1.86.08h0l.92,0c.15-.06.2-.42,0-.56L97.7,134l-.35,0c-1.6-.1-1.57-1.24-1.47-2.62l.77-9.82h.18L102,133.64c.05.17.13.46.39.46s.32-.27.4-.43l5.81-12.39h.19v10.79c0,.43,0,1.31-.4,1.64a3,3,0,0,1-1,.28l-.34,0-.63.06c-.15.14-.1.5,0,.56l.92,0c.84,0,1.7-.08,2.56-.08.61,0,1.82.06,1.82.06l1,0a.4.4,0,0,0,0-.56Z" transform="translate(-27.69 -21.98)"/><path class="cls-1" d="M146.11,128.53h-2.92c-.1,0-.91.1-.91-.14a1,1,0,0,1,.08-.28l1.75-4.34c0-.12.22-.71.43-.71s.35.62.4.71l1.73,4c0,.05.18.43.18.52,0,.27-.59.19-.74.19m6.54,5.56-.08-.06-.34-.05c-1-.22-1.35-1.39-1.71-2.22l-5-11.83c-.05-.14-.15-.45-.35-.45s-.35.33-.42.52L140,131.81a8.32,8.32,0,0,1-.94,1.86,1.36,1.36,0,0,1-.91.33l-.4,0-.59.06c-.15.14-.1.5,0,.56l.93,0c.65,0,1.3-.09,2-.09s1.1.06,1.66.08l.92,0a.41.41,0,0,0,.05-.57l-.63-.06-.34,0c-.57-.06-1.28-.16-1.28-.79a3.84,3.84,0,0,1,.34-1.3l.74-1.77c.37-.84.23-.94,1.22-.94h3.36c1.19,0,1,0,1.53,1.2l.8,1.79a4.05,4.05,0,0,1,.34,1.16c0,.59-.65.63-1.25.68l-.37,0-.6,0a.41.41,0,0,0,.05.57l.92,0c.7,0,1.41-.08,2.09-.08.87,0,1.73.06,2.6.08.29,0,0,0,.37,0a.38.38,0,0,0,.05-.56" transform="translate(-27.69 -21.98)"/><path class="cls-3" d="M55.27,82.91c15.78,0,37.62,8.89,53.46,8.89,11.3,0,22.34-3,28.62-7.47a48,48,0,1,0-95.4-8,49.34,49.34,0,0,0,.65,7.93,78.63,78.63,0,0,1,12.67-1.33" transform="translate(-27.69 -21.98)"/><polygon class="cls-2" points="93.32 43.22 95.22 44.01 99.44 41.07 93.32 43.22"/><path class="cls-2" d="M50.24,61.93l-5-1.76.25-.61,5.62,1.87h0l.74-.42.3-.19-6.13-2.6.25-.65L60,63.1l.45-.19L46.88,56.3l.3-.62,14.38,6.69.2-.1L47.82,54.36l.28-.59L68.24,64.72c.16-.3.51-.86.69-1.16A181.09,181.09,0,0,0,53.88,51a179.12,179.12,0,0,0,17,9.82c.31-.39.56-.7.89-1.06L54.57,44.59l.47-.47L68.9,55.94,56.05,43.07l.49-.5L71,56.51,57.53,41.61l.52-.46,12.4,13.29L59.13,40.17l.49-.45L74.13,57.39c.38-.32.69-.57,1.08-.87A180,180,0,0,0,66,39.29,178.79,178.79,0,0,0,78,54.67c.42-.24.84-.46,1.28-.68l-.07,0L69.05,33.64l.61-.26,8.43,16.15L71,32.79l.63-.28,8.15,18.32L72.91,32l.65-.23,6.53,17L74.94,31.24l.61-.22,6.79,21.67v.05h0c.45-.15.91-.29,1.37-.41a178.62,178.62,0,0,0-2-19.32A180.89,180.89,0,0,0,87,51.68c.48-.06,1-.11,1.44-.14v0h.06l0-.05L86.6,28.83l.67,0L89,46.94l-.3-18.18.69,0,.69,20.05.69-20,.69,0-.3,18.18L93,28.81l.66,0L91.79,51.47l0,.05h0c.47,0,.94.08,1.41.14A179.72,179.72,0,0,0,98.51,33a180.47,180.47,0,0,0-2.05,19.27c.46.12.93.26,1.38.41l6.76-21.6.62.23-5.15,17.47,6.52-17,.65.24-6.86,18.85,8.15-18.33.63.28L102.07,49.6l8.43-16.15.6.27L101,54h0c.42.2.83.42,1.24.64a180.37,180.37,0,0,0,11.93-15.31A177.87,177.87,0,0,0,105,56.42c.39.3.77.6,1.14.92L120.5,39.87l.49.44L109.66,54.58l12.41-13.29.51.47L109.16,56.65l14.42-13.93.48.49L111.21,56.08l13.87-11.82.46.47-17,15h0c.3.33.58.67.86,1A180.71,180.71,0,0,0,126.29,51a177.73,177.73,0,0,0-14.93,12.5c.21.35.54.94.74,1.3L132,54l.28.6-15.84,9,16.48-7.67.3.63L117.82,64l.29.1,15.62-6.32.26.64-14.51,6.18.27.11,9.67-3.22,1.46-1,.48.37,3.19-1.06.25.61-2.76,1,4,3,1.28.72a48.66,48.66,0,0,0-94.89,1.13l.18-.09.59-.26.35-.17Z" transform="translate(-27.69 -21.98)"/><path class="cls-1" d="M42.14,85.28A80.14,80.14,0,0,1,55.3,83.85c15.79,0,37.62,8.89,53.46,8.89,11.63,0,23-3.19,29.14-7.84a49.27,49.27,0,0,0-.6-19.82l-6.61-3.69-7.75,5.44-5.21-2C116,65.69,105.08,73,105.08,73l-4.18-3-4.48-.88-6-4.36-6.86,4.71s-7.65,4.44-7.92,4.44-9.23-7.1-9.23-7.1L62.3,62.39c-.7.45-3.51,1.74-3.51,1.74l-.15,0-2.71-.85-3.31-1.75-10,4.55-.18.09a49.15,49.15,0,0,0-1.08,10.22,48.64,48.64,0,0,0,.81,8.85" transform="translate(-27.69 -21.98)"/><line class="cls-4" x1="155.16" x2="155.16" y2="119.34"/></svg>
