<svg xmlns="http://www.w3.org/2000/svg" viewBox="0 0 204.55 186.5"><defs><style>.cls-1{fill:#fff;}.cls-2{fill:#ff8500;}</style></defs><g id="Layer_2" data-name="Layer 2"><g id="Layer_1-2" data-name="Layer 1"><path class="cls-1" d="M141.33,88.3,136,35.46,56.49,80.25,91,116.68Zm-24-6.25-.69-19.8a2.89,2.89,0,0,1,3-3.12,3.6,3.6,0,0,1,3.24,3.48l.69,19.81a2.88,2.88,0,0,1-3,3.12A3.6,3.6,0,0,1,117.33,82.05Zm-13.25,7.47-.69-19.8a2.88,2.88,0,0,1,3-3.12,3.61,3.61,0,0,1,3.25,3.48l.68,19.8a2.88,2.88,0,0,1-3,3.12A3.6,3.6,0,0,1,104.08,89.52ZM90.83,97l-.69-19.81a2.89,2.89,0,0,1,3-3.12,3.61,3.61,0,0,1,3.24,3.49l.68,19.8a2.88,2.88,0,0,1-3,3.12A3.6,3.6,0,0,1,90.83,97Z"/><path class="cls-1" d="M22.87,88.73l10.6-6L32,80.11l5.3-3,54.39,53.14L152.6,95.92l3,5.3L94.65,135.56l3,5.3,66.25-37.33-6-10.6-3-5.3-63.6,35.84L39.59,68.84l-10.6,6-1.5-2.65-10.6,6s-7.14,5.91-5,9.78C14.23,92,22.87,88.73,22.87,88.73Z"/><path class="cls-1" d="M111.05,136.79a10.65,10.65,0,1,0,14.5,4.05A10.65,10.65,0,0,0,111.05,136.79Zm9,15.9a7.61,7.61,0,1,1,2.89-10.36A7.61,7.61,0,0,1,120,152.69Z"/><path class="cls-1" d="M150.8,114.39a10.65,10.65,0,1,0,14.5,4A10.64,10.64,0,0,0,150.8,114.39Zm9,15.9a7.61,7.61,0,1,1,2.89-10.36A7.61,7.61,0,0,1,159.76,130.29Z"/><polygon class="cls-1" points="77.45 131.82 80.13 124.83 59.96 104.66 52.02 106.59 77.45 131.82"/><path class="cls-2" d="M67.82,130.4a.93.93,0,0,0-.82.19,28.52,28.52,0,0,1-19.93,7,28.46,28.46,0,0,1,9.71-18.78.88.88,0,0,0,.3-.78.9.9,0,0,0-.48-.68c-9-4.56-18.6-3.6-25.66,2.56A38.76,38.76,0,0,0,17.62,146.7l-.42,6.05a7,7,0,0,1-2.38,4.79A19,19,0,0,1,1,162.19a.89.89,0,0,0-.46,1.68A21.32,21.32,0,0,0,16.87,165a21.3,21.3,0,0,0,12.38-10.78,9.11,9.11,0,0,1,5.26-4.58,6.17,6.17,0,0,1,5.94,10.58,17.83,17.83,0,0,1-5.8,3.3.87.87,0,0,0-.6.95.89.89,0,0,0,.82.78h0A37.63,37.63,0,0,0,62.35,156c7.07-6.16,9.34-15.53,6.08-25.07A.91.91,0,0,0,67.82,130.4Z"/><path class="cls-1" d="M21.34,117.8l8.26-8.59a84.47,84.47,0,0,1-1.42-11.34c-3.27,1.81-6.61,3.51-9.64,5A92,92,0,0,0,21.34,117.8Z"/><path class="cls-1" d="M111.3,0a93.41,93.41,0,0,0-89,65.4c4.6-2.08,9.1-4.08,12.84-5.71A83.29,83.29,0,1,1,69.28,165.07l-9,6.18A93.24,93.24,0,1,0,111.3,0Z"/></g></g></svg>
